<svg width="256" height="256" viewBox="0 0 256 256" xmlns="http://www.w3.org/2000/svg">
  <defs>
    <linearGradient id="coinGradient" x1="0%" y1="0%" x2="100%" y2="100%">
      <stop offset="0%" style="stop-color:#E5E7EB;stop-opacity:1" />
      <stop offset="50%" style="stop-color:#D1D5DB;stop-opacity:1" />
      <stop offset="100%" style="stop-color:#9CA3AF;stop-opacity:1" />
    </linearGradient>
    <linearGradient id="innerGradient" x1="0%" y1="0%" x2="100%" y2="100%">
      <stop offset="0%" style="stop-color:#374151;stop-opacity:1" />
      <stop offset="100%" style="stop-color:#1F2937;stop-opacity:1" />
    </linearGradient>
    <filter id="shadow" x="-50%" y="-50%" width="200%" height="200%">
      <feDropShadow dx="4" dy="4" stdDeviation="8" flood-color="#000000" flood-opacity="0.3"/>
    </filter>
  </defs>
  
  <!-- Outer coin circle -->
  <circle cx="128" cy="128" r="120" fill="url(#coinGradient)" stroke="#6B7280" stroke-width="4" filter="url(#shadow)"/>
  
  <!-- Inner circle -->
  <circle cx="128" cy="128" r="90" fill="url(#innerGradient)" stroke="#D1D5DB" stroke-width="2"/>
  
  <!-- Dumbbell icon -->
  <g transform="translate(128, 110)">
    <!-- Left weight -->
    <rect x="-45" y="-12" width="16" height="24" rx="2" fill="#E5E7EB"/>
    <rect x="-42" y="-8" width="10" height="16" rx="1" fill="#D1D5DB"/>
    
    <!-- Right weight -->
    <rect x="29" y="-12" width="16" height="24" rx="2" fill="#E5E7EB"/>
    <rect x="32" y="-8" width="10" height="16" rx="1" fill="#D1D5DB"/>
    
    <!-- Bar -->
    <rect x="-29" y="-3" width="58" height="6" rx="3" fill="#E5E7EB"/>
    <rect x="-29" y="-2" width="58" height="4" rx="2" fill="#F9FAFB"/>
    
    <!-- Grip texture -->
    <rect x="-15" y="-2" width="2" height="4" fill="#D1D5DB"/>
    <rect x="-10" y="-2" width="2" height="4" fill="#D1D5DB"/>
    <rect x="-5" y="-2" width="2" height="4" fill="#D1D5DB"/>
    <rect x="0" y="-2" width="2" height="4" fill="#D1D5DB"/>
    <rect x="5" y="-2" width="2" height="4" fill="#D1D5DB"/>
    <rect x="10" y="-2" width="2" height="4" fill="#D1D5DB"/>
    <rect x="15" y="-2" width="2" height="4" fill="#D1D5DB"/>
  </g>
  
  <!-- GWC Text -->
  <text x="128" y="155" text-anchor="middle" font-family="Arial, sans-serif" font-size="24" font-weight="bold" fill="#F9FAFB" stroke="#374151" stroke-width="1">GWC</text>
  
  <!-- Decorative elements -->
  <circle cx="64" cy="64" r="3" fill="#D1D5DB" opacity="0.6"/>
  <circle cx="192" cy="64" r="3" fill="#D1D5DB" opacity="0.6"/>
  <circle cx="64" cy="192" r="3" fill="#D1D5DB" opacity="0.6"/>
  <circle cx="192" cy="192" r="3" fill="#D1D5DB" opacity="0.6"/>
  
  <!-- Subtle highlight on top -->
  <ellipse cx="128" cy="80" rx="60" ry="15" fill="#FFFFFF" opacity="0.2"/>
</svg>